<?xml version="1.0" encoding="utf-8"?>
<svg viewBox="120.869 142.361 72.069 83.163" xmlns="http://www.w3.org/2000/svg">
  <defs>
    <radialGradient gradientUnits="userSpaceOnUse" cx="156.903" cy="183.943" r="36.034" id="gradient-1" spreadMethod="repeat">
      <stop offset="0" style="stop-color: rgba(61, 177, 255, 1)"/>
      <stop offset="1" style="stop-color: rgba(0, 129, 214, 1)"/>
    </radialGradient>
  </defs>
  <path d="M 173.581 142.436 C 176.728 142.03 182.297 143.356 185.342 144.452 C 187.728 145.312 189.628 146.161 190.887 147.813 C 192.198 149.533 193.132 152.672 192.903 154.702 C 192.695 156.546 191.563 158.529 190.047 159.574 C 188.378 160.725 185.115 161.096 182.99 160.918 C 181.068 160.758 179.519 157.8 177.781 158.902 C 175.179 160.553 172.437 169.794 169.883 177.927 C 174.076 183.551 178.551 189.442 180.618 192.632 C 182.95 196.23 184.269 198.098 184.986 200.361 C 185.544 202.118 185.677 203.591 185.322 205.066 C 184.963 206.562 184.159 208.291 182.802 209.266 C 181.244 210.387 178.025 211.235 176.081 210.946 C 174.327 210.686 173.677 210.325 171.545 208.09 C 169.857 206.321 166.802 202.406 163.381 197.718 C 161.337 204.234 159.539 210.498 158.963 213.845 C 158.451 216.817 158.374 217.867 157.914 219.557 C 157.481 221.147 157.022 222.877 155.643 223.853 C 154.029 224.994 151.386 225.797 149.386 225.438 C 147.589 225.115 146.646 224.334 144.849 222.246 C 141.552 218.414 136.216 206.427 132.08 200.403 C 128.636 195.387 123.654 191.409 121.999 187.97 C 120.871 185.626 120.707 183.644 120.991 181.921 C 121.24 180.406 121.952 179.015 123.175 178.056 C 124.616 176.927 127.656 175.955 129.56 176.04 C 131.249 176.116 133.362 177.426 134.096 178.056 C 134.502 178.405 134.366 178.81 134.6 179.065 C 134.821 179.305 134.957 179.047 135.44 179.569 C 137.122 181.385 146.343 197.203 147.874 197.883 C 148.33 198.085 148.201 197.81 148.546 197.043 C 149.257 195.459 150.937 189.3 152.874 182.483 C 150.005 178.046 147.682 174.132 146.678 171.798 C 145.07 168.061 145.365 166.173 145.67 164.069 C 145.918 162.356 146.65 160.904 147.686 159.868 C 148.722 158.832 150.44 158.126 151.887 157.852 C 153.298 157.585 154.946 157.666 156.255 158.188 C 157.583 158.718 158.971 159.843 159.783 161.044 C 159.798 161.065 159.812 161.087 159.825 161.108 C 162.304 154.68 164.915 148.367 167.532 145.461 C 169.516 143.258 171.073 142.76 173.581 142.436 Z" style="stroke-width: 0px; paint-order: fill; fill: url(#gradient-1);"/>
</svg>